<svg xmlns="http://www.w3.org/2000/svg" xmlns:xlink="http://www.w3.org/1999/xlink" width="2000" zoomAndPan="magnify" viewBox="0 0 1500 1499.999933" height="2000" preserveAspectRatio="xMidYMid meet" version="1.0"><defs><g/><clipPath id="8c549014c5"><path d="M 234 0.398438 L 1024.238281 0.398438 L 1024.238281 414.398438 L 234 414.398438 Z M 234 0.398438 " clip-rule="nonzero"/></clipPath><clipPath id="7a080dca77"><rect x="0" width="791" y="0" height="415"/></clipPath><clipPath id="04108fa8b2"><path d="M 1.011719 114.664062 L 215.058594 114.664062 L 215.058594 328.710938 L 1.011719 328.710938 Z M 1.011719 114.664062 " clip-rule="nonzero"/></clipPath><clipPath id="d8eb957f5a"><path d="M 108.035156 114.664062 C 48.929688 114.664062 1.011719 162.582031 1.011719 221.6875 C 1.011719 280.796875 48.929688 328.710938 108.035156 328.710938 C 167.144531 328.710938 215.058594 280.796875 215.058594 221.6875 C 215.058594 162.582031 167.144531 114.664062 108.035156 114.664062 Z M 108.035156 114.664062 " clip-rule="nonzero"/></clipPath><clipPath id="eb3af65899"><path d="M 0.0117188 0.664062 L 214.058594 0.664062 L 214.058594 214.710938 L 0.0117188 214.710938 Z M 0.0117188 0.664062 " clip-rule="nonzero"/></clipPath><clipPath id="98f86befc1"><path d="M 107.035156 0.664062 C 47.929688 0.664062 0.0117188 48.582031 0.0117188 107.6875 C 0.0117188 166.796875 47.929688 214.710938 107.035156 214.710938 C 166.144531 214.710938 214.058594 166.796875 214.058594 107.6875 C 214.058594 48.582031 166.144531 0.664062 107.035156 0.664062 Z M 107.035156 0.664062 " clip-rule="nonzero"/></clipPath><clipPath id="e309518123"><rect x="0" width="215" y="0" height="215"/></clipPath><clipPath id="a472cd1c1b"><path d="M 69.296875 170.929688 L 163.445312 170.929688 L 163.445312 265.082031 L 69.296875 265.082031 Z M 69.296875 170.929688 " clip-rule="nonzero"/></clipPath><clipPath id="afd7d6689b"><path d="M 116.371094 170.929688 C 90.371094 170.929688 69.296875 192.007812 69.296875 218.007812 C 69.296875 244.003906 90.371094 265.082031 116.371094 265.082031 C 142.371094 265.082031 163.445312 244.003906 163.445312 218.007812 C 163.445312 192.007812 142.371094 170.929688 116.371094 170.929688 Z M 116.371094 170.929688 " clip-rule="nonzero"/></clipPath><clipPath id="dc2aa57f53"><path d="M 0.296875 0.929688 L 94.445312 0.929688 L 94.445312 95.082031 L 0.296875 95.082031 Z M 0.296875 0.929688 " clip-rule="nonzero"/></clipPath><clipPath id="bc2f0843ef"><path d="M 47.371094 0.929688 C 21.371094 0.929688 0.296875 22.007812 0.296875 48.007812 C 0.296875 74.003906 21.371094 95.082031 47.371094 95.082031 C 73.371094 95.082031 94.445312 74.003906 94.445312 48.007812 C 94.445312 22.007812 73.371094 0.929688 47.371094 0.929688 Z M 47.371094 0.929688 " clip-rule="nonzero"/></clipPath><clipPath id="e7fed2e1e3"><rect x="0" width="95" y="0" height="96"/></clipPath><clipPath id="f1890833fd"><path d="M 59.375 166.628906 L 163.445312 166.628906 L 163.445312 270.703125 L 59.375 270.703125 Z M 59.375 166.628906 " clip-rule="nonzero"/></clipPath><clipPath id="920d3a1d8d"><path d="M 111.410156 166.628906 C 82.671875 166.628906 59.375 189.929688 59.375 218.667969 C 59.375 247.40625 82.671875 270.703125 111.410156 270.703125 C 140.148438 270.703125 163.445312 247.40625 163.445312 218.667969 C 163.445312 189.929688 140.148438 166.628906 111.410156 166.628906 Z M 111.410156 166.628906 " clip-rule="nonzero"/></clipPath><clipPath id="7be9fa491f"><path d="M 0.375 0.628906 L 104.445312 0.628906 L 104.445312 104.703125 L 0.375 104.703125 Z M 0.375 0.628906 " clip-rule="nonzero"/></clipPath><clipPath id="40d30bb4a1"><path d="M 52.410156 0.628906 C 23.671875 0.628906 0.375 23.929688 0.375 52.667969 C 0.375 81.40625 23.671875 104.703125 52.410156 104.703125 C 81.148438 104.703125 104.445312 81.40625 104.445312 52.667969 C 104.445312 23.929688 81.148438 0.628906 52.410156 0.628906 Z M 52.410156 0.628906 " clip-rule="nonzero"/></clipPath><clipPath id="6899ad4f16"><rect x="0" width="105" y="0" height="105"/></clipPath><clipPath id="b25f277801"><path d="M 162.621094 114.609375 L 235.757812 114.609375 L 235.757812 335.757812 L 162.621094 335.757812 Z M 162.621094 114.609375 " clip-rule="nonzero"/></clipPath><clipPath id="9c654b8481"><path d="M 37.347656 188 L 51 188 L 51 222 L 37.347656 222 Z M 37.347656 188 " clip-rule="nonzero"/></clipPath><clipPath id="88cad1b22d"><path d="M 37.347656 188 L 52 188 L 52 222 L 37.347656 222 Z M 37.347656 188 " clip-rule="nonzero"/></clipPath><clipPath id="e5aef1118c"><path d="M 142 154.054688 L 157 154.054688 L 157 222 L 142 222 Z M 142 154.054688 " clip-rule="nonzero"/></clipPath><clipPath id="04c42b43b8"><path d="M 155 221 L 170 221 L 170 289.007812 L 155 289.007812 Z M 155 221 " clip-rule="nonzero"/></clipPath><clipPath id="824b22474d"><path d="M 182 221 L 195.808594 221 L 195.808594 238 L 182 238 Z M 182 221 " clip-rule="nonzero"/></clipPath><clipPath id="44c0afd804"><rect x="0" width="1025" y="0" height="415"/></clipPath><clipPath id="27d26e39aa"><path d="M 183 148 L 276 148 L 276 290.578125 L 183 290.578125 Z M 183 148 " clip-rule="nonzero"/></clipPath><clipPath id="8b02fb3f95"><path d="M 1 35 L 233 35 L 233 290.578125 L 1 290.578125 Z M 1 35 " clip-rule="nonzero"/></clipPath><clipPath id="c8033aa00d"><path d="M 236 254 L 287 254 L 287 314 L 236 314 Z M 236 254 " clip-rule="nonzero"/></clipPath><clipPath id="0ab9ae2065"><path d="M 302.359375 299.519531 L 266.351562 324.878906 L 232.1875 276.367188 L 268.195312 251.007812 Z M 302.359375 299.519531 " clip-rule="nonzero"/></clipPath><clipPath id="b0bf275ed9"><path d="M 278.441406 312.160156 L 240.109375 286.339844 C 237.570312 284.628906 236.039062 281.78125 236.003906 278.722656 C 235.972656 275.664062 237.449219 272.785156 239.949219 271.023438 L 260.550781 256.515625 C 263.050781 254.753906 266.261719 254.335938 269.128906 255.394531 C 272 256.457031 274.164062 258.859375 274.917969 261.824219 L 286.3125 306.617188 C 286.839844 308.6875 286.03125 310.867188 284.285156 312.097656 C 282.539062 313.328125 280.214844 313.351562 278.441406 312.160156 Z M 278.441406 312.160156 " clip-rule="nonzero"/></clipPath><clipPath id="38594a2d14"><path d="M 0 0.121094 L 50.878906 0.121094 L 50.878906 59.398438 L 0 59.398438 Z M 0 0.121094 " clip-rule="nonzero"/></clipPath><clipPath id="b36fa5aecd"><path d="M 66.359375 45.519531 L 30.351562 70.878906 L -3.8125 22.367188 L 32.195312 -2.992188 Z M 66.359375 45.519531 " clip-rule="nonzero"/></clipPath><clipPath id="e73761a448"><path d="M 42.441406 58.160156 L 4.109375 32.339844 C 1.570312 30.628906 0.0390625 27.78125 0.00390625 24.722656 C -0.0273438 21.664062 1.449219 18.785156 3.949219 17.023438 L 24.550781 2.515625 C 27.050781 0.753906 30.261719 0.335938 33.128906 1.394531 C 36 2.457031 38.164062 4.859375 38.917969 7.824219 L 50.3125 52.617188 C 50.839844 54.6875 50.03125 56.867188 48.285156 58.097656 C 46.539062 59.328125 44.214844 59.351562 42.441406 58.160156 Z M 42.441406 58.160156 " clip-rule="nonzero"/></clipPath><clipPath id="198f04aa08"><rect x="0" width="51" y="0" height="60"/></clipPath><clipPath id="91f6b78533"><rect x="0" width="312" y="0" height="335"/></clipPath></defs><g transform="matrix(1, 0, 0, 1, 80, 542)"><g clip-path="url(#44c0afd804)"><g clip-path="url(#8c549014c5)"><g transform="matrix(1, 0, 0, 1, 234, 0.000000000000113687)"><g clip-path="url(#7a080dca77)"><g fill="#ffffff" fill-opacity="1"><g transform="translate(0.601709, 330.405492)"><g><path d="M 149.234375 -119.390625 C 149.234375 -130.441406 145.363281 -139.835938 137.625 -147.578125 C 129.882812 -155.316406 120.488281 -159.1875 109.4375 -159.1875 C 98.382812 -159.1875 88.988281 -155.316406 81.25 -147.578125 C 73.507812 -139.835938 69.640625 -130.441406 69.640625 -119.390625 L 69.640625 -26.53125 C 69.640625 -19.34375 67.015625 -13.125 61.765625 -7.875 C 56.515625 -2.625 50.296875 0 43.109375 0 C 35.921875 0 29.703125 -2.625 24.453125 -7.875 C 19.203125 -13.125 16.578125 -19.34375 16.578125 -26.53125 L 16.578125 -119.390625 C 16.578125 -134.316406 19.753906 -148.132812 26.109375 -160.84375 C 22.242188 -163.601562 19.132812 -167.125 16.78125 -171.40625 C 14.4375 -175.695312 13.265625 -180.46875 13.265625 -185.71875 C 13.265625 -194.007812 16.164062 -201.054688 21.96875 -206.859375 C 27.769531 -212.660156 34.816406 -215.5625 43.109375 -215.5625 C 48.359375 -215.5625 53.125 -214.316406 57.40625 -211.828125 C 61.695312 -209.347656 65.222656 -206.171875 67.984375 -202.296875 C 74.335938 -205.335938 80.96875 -207.753906 87.875 -209.546875 C 94.789062 -211.347656 101.976562 -212.25 109.4375 -212.25 C 122.707031 -212.25 134.9375 -209.757812 146.125 -204.78125 C 157.320312 -199.8125 167.203125 -193.039062 175.765625 -184.46875 C 184.054688 -193.039062 193.867188 -199.8125 205.203125 -204.78125 C 216.535156 -209.757812 228.832031 -212.25 242.09375 -212.25 C 254.8125 -212.25 266.832031 -209.828125 278.15625 -204.984375 C 289.488281 -200.148438 299.367188 -193.519531 307.796875 -185.09375 C 316.222656 -176.664062 322.851562 -166.785156 327.6875 -155.453125 C 332.53125 -144.117188 334.953125 -132.097656 334.953125 -119.390625 L 334.953125 -26.53125 C 334.953125 -19.34375 332.328125 -13.125 327.078125 -7.875 C 321.828125 -2.625 315.609375 0 308.421875 0 C 301.234375 0 295.015625 -2.625 289.765625 -7.875 C 284.515625 -13.125 281.890625 -19.34375 281.890625 -26.53125 L 281.890625 -119.390625 C 281.890625 -130.441406 278.019531 -139.835938 270.28125 -147.578125 C 262.539062 -155.316406 253.144531 -159.1875 242.09375 -159.1875 C 231.039062 -159.1875 221.644531 -155.316406 213.90625 -147.578125 C 206.164062 -139.835938 202.296875 -130.441406 202.296875 -119.390625 L 202.296875 -26.53125 C 202.296875 -19.34375 199.671875 -13.125 194.421875 -7.875 C 189.171875 -2.625 182.953125 0 175.765625 0 C 168.578125 0 162.359375 -2.625 157.109375 -7.875 C 151.859375 -13.125 149.234375 -19.34375 149.234375 -26.53125 Z M 149.234375 -119.390625 "/></g></g></g><g fill="#ffffff" fill-opacity="1"><g transform="translate(334.311264, 330.405492)"><g><path d="M 6.625 -106.125 C 6.625 -120.769531 9.390625 -134.515625 14.921875 -147.359375 C 20.453125 -160.210938 28.050781 -171.476562 37.71875 -181.15625 C 47.394531 -190.832031 58.65625 -198.429688 71.5 -203.953125 C 84.351562 -209.484375 98.101562 -212.25 112.75 -212.25 C 127.40625 -212.25 141.15625 -209.484375 154 -203.953125 C 166.851562 -198.429688 178.113281 -190.832031 187.78125 -181.15625 C 197.457031 -171.476562 205.054688 -160.210938 210.578125 -147.359375 C 216.109375 -134.515625 218.875 -120.769531 218.875 -106.125 C 218.875 -96.445312 217.628906 -87.253906 215.140625 -78.546875 C 212.660156 -69.847656 209.207031 -61.488281 204.78125 -53.46875 C 210.03125 -51.257812 214.242188 -47.738281 217.421875 -42.90625 C 220.609375 -38.070312 222.203125 -32.613281 222.203125 -26.53125 C 222.203125 -18.238281 219.296875 -11.191406 213.484375 -5.390625 C 207.679688 0.410156 200.632812 3.3125 192.34375 3.3125 C 186.269531 3.3125 180.8125 1.722656 175.96875 -1.453125 C 171.132812 -4.628906 167.472656 -8.84375 164.984375 -14.09375 C 149.234375 -4.695312 131.820312 0 112.75 0 C 98.101562 0 84.351562 -2.757812 71.5 -8.28125 C 58.65625 -13.8125 47.394531 -21.410156 37.71875 -31.078125 C 28.050781 -40.753906 20.453125 -52.019531 14.921875 -64.875 C 9.390625 -77.726562 6.625 -91.476562 6.625 -106.125 Z M 59.6875 -106.125 C 59.6875 -98.664062 61.066406 -91.753906 63.828125 -85.390625 C 66.597656 -79.035156 70.398438 -73.441406 75.234375 -68.609375 C 80.078125 -63.773438 85.675781 -59.972656 92.03125 -57.203125 C 98.382812 -54.441406 105.289062 -53.0625 112.75 -53.0625 C 120.21875 -53.0625 127.128906 -54.441406 133.484375 -57.203125 C 139.835938 -59.972656 145.429688 -63.773438 150.265625 -68.609375 C 155.109375 -73.441406 158.910156 -79.035156 161.671875 -85.390625 C 164.429688 -91.753906 165.8125 -98.664062 165.8125 -106.125 C 165.8125 -113.582031 164.429688 -120.488281 161.671875 -126.84375 C 158.910156 -133.207031 155.109375 -138.804688 150.265625 -143.640625 C 145.429688 -148.472656 139.835938 -152.269531 133.484375 -155.03125 C 127.128906 -157.800781 120.21875 -159.1875 112.75 -159.1875 C 105.289062 -159.1875 98.382812 -157.800781 92.03125 -155.03125 C 85.675781 -152.269531 80.078125 -148.472656 75.234375 -143.640625 C 70.398438 -138.804688 66.597656 -133.207031 63.828125 -126.84375 C 61.066406 -120.488281 59.6875 -113.582031 59.6875 -106.125 Z M 59.6875 -106.125 "/></g></g></g><g fill="#ffffff" fill-opacity="1"><g transform="translate(555.264165, 330.405492)"><g><path d="M 13.265625 -185.71875 C 13.265625 -194.007812 16.164062 -201.054688 21.96875 -206.859375 C 27.769531 -212.660156 34.816406 -215.5625 43.109375 -215.5625 C 49.191406 -215.5625 54.648438 -213.972656 59.484375 -210.796875 C 64.316406 -207.617188 67.84375 -203.40625 70.0625 -198.15625 C 78.070312 -202.570312 86.429688 -206.023438 95.140625 -208.515625 C 103.847656 -211.003906 113.035156 -212.25 122.703125 -212.25 C 137.347656 -212.25 151.097656 -209.484375 163.953125 -203.953125 C 176.804688 -198.429688 188.066406 -190.832031 197.734375 -181.15625 C 207.410156 -171.476562 215.007812 -160.210938 220.53125 -147.359375 C 226.0625 -134.515625 228.828125 -120.769531 228.828125 -106.125 L 228.828125 -26.53125 C 228.828125 -19.34375 226.203125 -13.125 220.953125 -7.875 C 215.703125 -2.625 209.484375 0 202.296875 0 C 195.109375 0 188.890625 -2.625 183.640625 -7.875 C 178.390625 -13.125 175.765625 -19.34375 175.765625 -26.53125 L 175.765625 -106.125 C 175.765625 -113.582031 174.382812 -120.488281 171.625 -126.84375 C 168.863281 -133.207031 165.0625 -138.804688 160.21875 -143.640625 C 155.382812 -148.472656 149.789062 -152.269531 143.4375 -155.03125 C 137.082031 -157.800781 130.171875 -159.1875 122.703125 -159.1875 C 115.242188 -159.1875 108.332031 -157.800781 101.96875 -155.03125 C 95.613281 -152.269531 90.019531 -148.472656 85.1875 -143.640625 C 80.351562 -138.804688 76.550781 -133.207031 73.78125 -126.84375 C 71.019531 -120.488281 69.640625 -113.582031 69.640625 -106.125 L 69.640625 -26.53125 C 69.640625 -19.34375 67.015625 -13.125 61.765625 -7.875 C 56.515625 -2.625 50.296875 0 43.109375 0 C 35.921875 0 29.703125 -2.625 24.453125 -7.875 C 19.203125 -13.125 16.578125 -19.34375 16.578125 -26.53125 L 16.578125 -106.125 C 16.578125 -125.195312 21.273438 -142.609375 30.671875 -158.359375 C 25.421875 -160.847656 21.207031 -164.507812 18.03125 -169.34375 C 14.851562 -174.175781 13.265625 -179.632812 13.265625 -185.71875 Z M 13.265625 -185.71875 "/></g></g></g></g></g></g><g clip-path="url(#04108fa8b2)"><g clip-path="url(#d8eb957f5a)"><g transform="matrix(1, 0, 0, 1, 1, 114)"><g clip-path="url(#e309518123)"><g clip-path="url(#eb3af65899)"><g clip-path="url(#98f86befc1)"><path fill="#ffffff" d="M 0.0117188 0.664062 L 214.058594 0.664062 L 214.058594 214.710938 L 0.0117188 214.710938 Z M 0.0117188 0.664062 " fill-opacity="1" fill-rule="nonzero"/></g></g></g></g></g></g><g clip-path="url(#a472cd1c1b)"><g clip-path="url(#afd7d6689b)"><g transform="matrix(1, 0, 0, 1, 69, 170)"><g clip-path="url(#e7fed2e1e3)"><g clip-path="url(#dc2aa57f53)"><g clip-path="url(#bc2f0843ef)"><path fill="#000000" d="M 0.296875 0.929688 L 94.445312 0.929688 L 94.445312 95.082031 L 0.296875 95.082031 Z M 0.296875 0.929688 " fill-opacity="1" fill-rule="nonzero"/></g></g></g></g></g></g><g clip-path="url(#f1890833fd)"><g clip-path="url(#920d3a1d8d)"><g transform="matrix(1, 0, 0, 1, 59, 166)"><g clip-path="url(#6899ad4f16)"><g clip-path="url(#7be9fa491f)"><g clip-path="url(#40d30bb4a1)"><path fill="#ffde59" d="M 0.375 0.628906 L 104.445312 0.628906 L 104.445312 104.703125 L 0.375 104.703125 Z M 0.375 0.628906 " fill-opacity="1" fill-rule="nonzero"/></g></g></g></g></g></g><g clip-path="url(#b25f277801)"><path fill="#ffffff" d="M 162.621094 114.773438 L 162.621094 262.417969 C 162.621094 302.859375 195.40625 335.648438 235.851562 335.648438 L 235.851562 188 C 235.851562 147.558594 203.066406 114.773438 162.621094 114.773438 Z M 162.621094 114.773438 " fill-opacity="1" fill-rule="nonzero"/></g><g clip-path="url(#9c654b8481)"><path fill="#000000" d="M 44.019531 188.480469 C 47.644531 188.480469 50.613281 191.4375 50.613281 195.046875 L 50.613281 221.53125 L 37.421875 221.53125 L 37.421875 195.046875 C 37.421875 191.4375 40.390625 188.480469 44.019531 188.480469 Z M 44.019531 188.480469 " fill-opacity="1" fill-rule="evenodd"/></g><g clip-path="url(#88cad1b22d)"><path stroke-linecap="butt" transform="matrix(0.0158313, 0, 0, 0.0157543, 37.421437, 142.760234)" fill="none" stroke-linejoin="miter" d="M 416.773978 2902.084004 C 645.750039 2902.084004 833.273537 3089.781051 833.273537 3318.885504 L 833.273537 4999.976626 L 0.027677 4999.976626 L 0.027677 3318.885504 C 0.027677 3089.781051 187.551175 2902.084004 416.773978 2902.084004 Z M 416.773978 2902.084004 " stroke="#000000" stroke-width="6.94" stroke-opacity="1" stroke-miterlimit="2.613"/></g><path stroke-linecap="butt" transform="matrix(0.0158313, 0, 0, 0.0157543, 37.421437, 142.760234)" fill-opacity="1" fill="#000000" fill-rule="evenodd" stroke-linejoin="miter" d="M 2083.265699 1223.968264 C 2312.488501 1223.968264 2500.012 1411.417363 2500.012 1640.521817 L 2500.012 4999.976626 L 1666.766139 4999.976626 L 1666.766139 1640.521817 C 1666.766139 1411.417363 1854.289638 1223.968264 2083.265699 1223.968264 Z M 2083.265699 1223.968264 " stroke="#000000" stroke-width="6.94" stroke-opacity="1" stroke-miterlimit="2.613"/><path stroke-linecap="butt" transform="matrix(0.0158313, 0, 0, 0.0157543, 37.421437, 142.760234)" fill-opacity="1" fill="#000000" fill-rule="evenodd" stroke-linejoin="miter" d="M 3750.004161 3137.387171 C 3979.226964 3137.387171 4166.750462 3324.83627 4166.750462 3553.940723 L 4166.750462 4999.976626 L 3333.25786 4999.976626 L 3333.25786 3553.940723 C 3333.25786 3324.83627 3520.781359 3137.387171 3750.004161 3137.387171 Z M 3750.004161 3137.387171 " stroke="#000000" stroke-width="6.94" stroke-opacity="1" stroke-miterlimit="2.613"/><path stroke-linecap="butt" transform="matrix(0.0158313, 0, 0, 0.0157543, 37.421437, 142.760234)" fill-opacity="1" fill="#000000" fill-rule="evenodd" stroke-linejoin="miter" d="M 5416.742624 1953.184929 C 5645.718685 1953.184929 5833.242183 2140.634028 5833.242183 2369.738482 L 5833.242183 4999.976626 L 4999.996323 4999.976626 L 4999.996323 2369.738482 C 4999.996323 2140.634028 5187.519821 1953.184929 5416.742624 1953.184929 Z M 5416.742624 1953.184929 " stroke="#000000" stroke-width="6.94" stroke-opacity="1" stroke-miterlimit="2.613"/><g clip-path="url(#e5aef1118c)"><path stroke-linecap="butt" transform="matrix(0.0158313, 0, 0, 0.0157543, 37.421437, 142.760234)" fill-opacity="1" fill="#000000" fill-rule="evenodd" stroke-linejoin="miter" d="M 7083.234344 720.384773 C 7312.457147 720.384773 7499.980645 907.833872 7499.980645 1137.186274 L 7499.980645 4999.976626 L 6666.734785 4999.976626 L 6666.734785 1137.186274 C 6666.734785 907.833872 6854.258283 720.384773 7083.234344 720.384773 Z M 7083.234344 720.384773 " stroke="#000000" stroke-width="6.94" stroke-opacity="1" stroke-miterlimit="2.613"/></g><path stroke-linecap="butt" transform="matrix(0.0158313, 0, 0, 0.0157543, 37.421437, 142.760234)" fill-opacity="1" fill="#000000" fill-rule="evenodd" stroke-linejoin="miter" d="M 8749.972807 3987.354777 C 8979.195609 3987.354777 9166.719108 4174.803875 9166.719108 4403.908329 L 9166.719108 4999.976626 L 8333.226506 4999.976626 L 8333.226506 4403.908329 C 8333.226506 4174.803875 8520.750004 3987.354777 8749.972807 3987.354777 Z M 8749.972807 3987.354777 " stroke="#000000" stroke-width="6.94" stroke-opacity="1" stroke-miterlimit="2.613"/><path stroke-linecap="butt" transform="matrix(0.0158313, 0, 0, 0.0157543, 37.421437, 142.760234)" fill-opacity="1" fill="#000000" fill-rule="evenodd" stroke-linejoin="miter" d="M 1250.019838 7097.869249 C 1479.242641 7097.869249 1666.766139 6910.420151 1666.766139 6681.067748 L 1666.766139 4999.976626 L 833.273537 4999.976626 L 833.273537 6681.067748 C 833.273537 6910.420151 1020.797036 7097.869249 1250.019838 7097.869249 Z M 1250.019838 7097.869249 " stroke="#000000" stroke-width="6.94" stroke-opacity="1" stroke-miterlimit="2.613"/><path stroke-linecap="butt" transform="matrix(0.0158313, 0, 0, 0.0157543, 37.421437, 142.760234)" fill-opacity="1" fill="#000000" fill-rule="evenodd" stroke-linejoin="miter" d="M 2916.758301 8775.984989 C 3145.734362 8775.984989 3333.25786 8588.53589 3333.25786 8359.431436 L 3333.25786 4999.976626 L 2500.012 4999.976626 L 2500.012 8359.431436 C 2500.012 8588.53589 2687.535498 8775.984989 2916.758301 8775.984989 Z M 2916.758301 8775.984989 " stroke="#000000" stroke-width="6.94" stroke-opacity="1" stroke-miterlimit="2.613"/><path stroke-linecap="butt" transform="matrix(0.0158313, 0, 0, 0.0157543, 37.421437, 142.760234)" fill-opacity="1" fill="#000000" fill-rule="evenodd" stroke-linejoin="miter" d="M 4583.250022 6862.81403 C 4812.472824 6862.81403 4999.996323 6675.116983 4999.996323 6446.012529 L 4999.996323 4999.976626 L 4166.750462 4999.976626 L 4166.750462 6446.012529 C 4166.750462 6675.116983 4354.273961 6862.81403 4583.250022 6862.81403 Z M 4583.250022 6862.81403 " stroke="#000000" stroke-width="6.94" stroke-opacity="1" stroke-miterlimit="2.613"/><path stroke-linecap="butt" transform="matrix(0.0158313, 0, 0, 0.0157543, 37.421437, 142.760234)" fill-opacity="1" fill="#000000" fill-rule="evenodd" stroke-linejoin="miter" d="M 6249.988484 8047.016272 C 6479.211287 8047.016272 6666.734785 7859.319225 6666.734785 7630.214771 L 6666.734785 4999.976626 L 5833.242183 4999.976626 L 5833.242183 7630.214771 C 5833.242183 7859.319225 6020.765681 8047.016272 6249.988484 8047.016272 Z M 6249.988484 8047.016272 " stroke="#000000" stroke-width="6.94" stroke-opacity="1" stroke-miterlimit="2.613"/><path fill="#000000" d="M 162.753906 288.953125 C 166.382812 288.953125 169.347656 286 169.347656 282.386719 L 169.347656 221.53125 L 156.15625 221.53125 L 156.15625 282.386719 C 156.15625 286 159.125 288.953125 162.753906 288.953125 Z M 162.753906 288.953125 " fill-opacity="1" fill-rule="evenodd"/><g clip-path="url(#04c42b43b8)"><path stroke-linecap="butt" transform="matrix(0.0158313, 0, 0, 0.0157543, 37.421437, 142.760234)" fill="none" stroke-linejoin="miter" d="M 7916.726946 9279.568479 C 8145.949749 9279.568479 8333.226506 9092.119381 8333.226506 8862.766979 L 8333.226506 4999.976626 L 7499.980645 4999.976626 L 7499.980645 8862.766979 C 7499.980645 9092.119381 7687.504144 9279.568479 7916.726946 9279.568479 Z M 7916.726946 9279.568479 " stroke="#000000" stroke-width="6.94" stroke-opacity="1" stroke-miterlimit="2.613"/></g><g clip-path="url(#824b22474d)"><path stroke-linecap="butt" transform="matrix(0.0158313, 0, 0, 0.0157543, 37.421437, 142.760234)" fill-opacity="1" fill="#000000" fill-rule="evenodd" stroke-linejoin="miter" d="M 9583.218667 6012.846425 C 9812.44147 6012.846425 9999.964968 5825.149378 9999.964968 5596.044924 L 9999.964968 4999.976626 L 9166.719108 4999.976626 L 9166.719108 5596.044924 C 9166.719108 5825.149378 9354.242606 6012.846425 9583.218667 6012.846425 Z M 9583.218667 6012.846425 " stroke="#000000" stroke-width="6.94" stroke-opacity="1" stroke-miterlimit="2.613"/></g></g></g><g transform="matrix(1, 0, 0, 1, 1108, 589)"><g clip-path="url(#91f6b78533)"><g clip-path="url(#27d26e39aa)"><path fill="#ffde59" d="M 272.550781 255.011719 L 210.910156 148.269531 L 183.730469 195.394531 L 231.726562 278.546875 C 236.0625 286.0625 243.984375 290.34375 252.136719 290.34375 C 256.128906 290.34375 260.175781 289.300781 263.875 287.164062 C 275.210938 280.628906 279.027344 266.289062 272.550781 255.011719 Z M 272.550781 255.011719 " fill-opacity="1" fill-rule="nonzero"/></g><g clip-path="url(#8b02fb3f95)"><path fill="#ffde59" d="M 229.296875 89.632812 L 203.160156 134.910156 L 175.925781 182.039062 L 133.828125 254.953125 C 121.222656 276.8125 97.6875 290.402344 72.476562 290.402344 C 46.859375 290.402344 23.902344 277.160156 11.066406 254.953125 C -1.769531 232.808594 -1.769531 206.265625 11.066406 184.0625 L 84.734375 56.558594 C 92.367188 43.316406 106.074219 35.394531 121.339844 35.394531 C 136.605469 35.394531 150.308594 43.316406 158 56.558594 L 160.660156 61.183594 L 168.292969 74.367188 L 141.058594 121.496094 L 121.339844 87.378906 L 51.949219 207.597656 C 45.761719 218.292969 49.867188 227.777344 51.949219 231.363281 C 54.03125 234.945312 60.160156 243.273438 72.535156 243.273438 C 80.976562 243.273438 88.898438 238.707031 93.0625 231.363281 L 148.746094 134.910156 L 175.984375 87.785156 L 188.472656 66.097656 C 195.007812 54.824219 209.40625 50.949219 220.683594 57.484375 C 231.957031 63.960938 235.832031 78.359375 229.296875 89.632812 Z M 229.296875 89.632812 " fill-opacity="1" fill-rule="nonzero"/></g><path fill="#ffde59" d="M 217.847656 33.660156 C 230.453125 62.050781 272.492188 44.644531 261.390625 15.617188 C 248.726562 -12.714844 206.6875 4.6875 217.847656 33.660156 Z M 217.847656 33.660156 " fill-opacity="1" fill-rule="nonzero"/><g clip-path="url(#c8033aa00d)"><g clip-path="url(#0ab9ae2065)"><g clip-path="url(#b0bf275ed9)"><g transform="matrix(1, 0, 0, 1, 236, 254)"><g clip-path="url(#198f04aa08)"><g clip-path="url(#38594a2d14)"><g clip-path="url(#b36fa5aecd)"><g clip-path="url(#e73761a448)"><path fill="#ffde59" d="M 74.976562 50.671875 L 32.300781 80.726562 L -7.148438 24.714844 L 35.53125 -5.339844 Z M 74.976562 50.671875 " fill-opacity="1" fill-rule="nonzero"/></g></g></g></g></g></g></g></g></g></g></svg>