<svg xmlns="http://www.w3.org/2000/svg" xmlns:xlink="http://www.w3.org/1999/xlink" width="2000" zoomAndPan="magnify" viewBox="0 0 1500 1499.999933" height="2000" preserveAspectRatio="xMidYMid meet" version="1.0"><defs><g/><clipPath id="4d3872fabe"><path d="M 81.011719 656.664062 L 295.058594 656.664062 L 295.058594 870.710938 L 81.011719 870.710938 Z M 81.011719 656.664062 " clip-rule="nonzero"/></clipPath><clipPath id="923acc5826"><path d="M 188.035156 656.664062 C 128.929688 656.664062 81.011719 704.582031 81.011719 763.6875 C 81.011719 822.796875 128.929688 870.710938 188.035156 870.710938 C 247.144531 870.710938 295.058594 822.796875 295.058594 763.6875 C 295.058594 704.582031 247.144531 656.664062 188.035156 656.664062 Z M 188.035156 656.664062 " clip-rule="nonzero"/></clipPath><clipPath id="507ba11918"><path d="M 0.0117188 0.664062 L 214.058594 0.664062 L 214.058594 214.710938 L 0.0117188 214.710938 Z M 0.0117188 0.664062 " clip-rule="nonzero"/></clipPath><clipPath id="d621963636"><path d="M 107.035156 0.664062 C 47.929688 0.664062 0.0117188 48.582031 0.0117188 107.6875 C 0.0117188 166.796875 47.929688 214.710938 107.035156 214.710938 C 166.144531 214.710938 214.058594 166.796875 214.058594 107.6875 C 214.058594 48.582031 166.144531 0.664062 107.035156 0.664062 Z M 107.035156 0.664062 " clip-rule="nonzero"/></clipPath><clipPath id="480018147b"><rect x="0" width="215" y="0" height="215"/></clipPath><clipPath id="99fbe078f5"><path d="M 149.296875 712.929688 L 243.445312 712.929688 L 243.445312 807.082031 L 149.296875 807.082031 Z M 149.296875 712.929688 " clip-rule="nonzero"/></clipPath><clipPath id="6d99659e5d"><path d="M 196.371094 712.929688 C 170.371094 712.929688 149.296875 734.007812 149.296875 760.007812 C 149.296875 786.003906 170.371094 807.082031 196.371094 807.082031 C 222.371094 807.082031 243.445312 786.003906 243.445312 760.007812 C 243.445312 734.007812 222.371094 712.929688 196.371094 712.929688 Z M 196.371094 712.929688 " clip-rule="nonzero"/></clipPath><clipPath id="e0a60ce56a"><path d="M 0.296875 0.929688 L 94.445312 0.929688 L 94.445312 95.082031 L 0.296875 95.082031 Z M 0.296875 0.929688 " clip-rule="nonzero"/></clipPath><clipPath id="e10830ac9a"><path d="M 47.371094 0.929688 C 21.371094 0.929688 0.296875 22.007812 0.296875 48.007812 C 0.296875 74.003906 21.371094 95.082031 47.371094 95.082031 C 73.371094 95.082031 94.445312 74.003906 94.445312 48.007812 C 94.445312 22.007812 73.371094 0.929688 47.371094 0.929688 Z M 47.371094 0.929688 " clip-rule="nonzero"/></clipPath><clipPath id="ecfeab9a39"><rect x="0" width="95" y="0" height="96"/></clipPath><clipPath id="96d0f3190b"><path d="M 139.375 708.628906 L 243.445312 708.628906 L 243.445312 812.703125 L 139.375 812.703125 Z M 139.375 708.628906 " clip-rule="nonzero"/></clipPath><clipPath id="2dffa733ad"><path d="M 191.410156 708.628906 C 162.671875 708.628906 139.375 731.929688 139.375 760.667969 C 139.375 789.40625 162.671875 812.703125 191.410156 812.703125 C 220.148438 812.703125 243.445312 789.40625 243.445312 760.667969 C 243.445312 731.929688 220.148438 708.628906 191.410156 708.628906 Z M 191.410156 708.628906 " clip-rule="nonzero"/></clipPath><clipPath id="d9bcab2dd3"><path d="M 0.375 0.628906 L 104.445312 0.628906 L 104.445312 104.703125 L 0.375 104.703125 Z M 0.375 0.628906 " clip-rule="nonzero"/></clipPath><clipPath id="f9b6299bb7"><path d="M 52.410156 0.628906 C 23.671875 0.628906 0.375 23.929688 0.375 52.667969 C 0.375 81.40625 23.671875 104.703125 52.410156 104.703125 C 81.148438 104.703125 104.445312 81.40625 104.445312 52.667969 C 104.445312 23.929688 81.148438 0.628906 52.410156 0.628906 Z M 52.410156 0.628906 " clip-rule="nonzero"/></clipPath><clipPath id="c4ebb9a529"><rect x="0" width="105" y="0" height="105"/></clipPath><clipPath id="531ed5f9cb"><path d="M 242.625 656.507812 L 316.125 656.507812 L 316.125 877.757812 L 242.625 877.757812 Z M 242.625 656.507812 " clip-rule="nonzero"/></clipPath><clipPath id="a21a1a36cb"><path d="M 114.636719 730 L 128 730 L 128 764 L 114.636719 764 Z M 114.636719 730 " clip-rule="nonzero"/></clipPath><clipPath id="755741389d"><path d="M 114.636719 730 L 129 730 L 129 765 L 114.636719 765 Z M 114.636719 730 " clip-rule="nonzero"/></clipPath><clipPath id="6052979a65"><path d="M 219 696.054688 L 234 696.054688 L 234 764 L 219 764 Z M 219 696.054688 " clip-rule="nonzero"/></clipPath><clipPath id="90ccb50ae1"><path d="M 219 696.054688 L 234 696.054688 L 234 765 L 219 765 Z M 219 696.054688 " clip-rule="nonzero"/></clipPath><clipPath id="45efbd0e4e"><path d="M 233 763 L 247 763 L 247 831.054688 L 233 831.054688 Z M 233 763 " clip-rule="nonzero"/></clipPath><clipPath id="b10bbbcf76"><path d="M 232 763 L 247 763 L 247 831.054688 L 232 831.054688 Z M 232 763 " clip-rule="nonzero"/></clipPath><clipPath id="6efc296d47"><path d="M 259 763 L 272.886719 763 L 272.886719 780 L 259 780 Z M 259 763 " clip-rule="nonzero"/></clipPath><clipPath id="da54a64092"><path d="M 259 763 L 272.886719 763 L 272.886719 781 L 259 781 Z M 259 763 " clip-rule="nonzero"/></clipPath><clipPath id="fded75a604"><path d="M 183 148 L 276 148 L 276 290.578125 L 183 290.578125 Z M 183 148 " clip-rule="nonzero"/></clipPath><clipPath id="34419bdad1"><path d="M 1 35 L 233 35 L 233 290.578125 L 1 290.578125 Z M 1 35 " clip-rule="nonzero"/></clipPath><clipPath id="860bc5e7de"><path d="M 236 254 L 287 254 L 287 314 L 236 314 Z M 236 254 " clip-rule="nonzero"/></clipPath><clipPath id="4f952a3933"><path d="M 302.359375 299.519531 L 266.351562 324.878906 L 232.1875 276.367188 L 268.195312 251.007812 Z M 302.359375 299.519531 " clip-rule="nonzero"/></clipPath><clipPath id="35ac481362"><path d="M 278.441406 312.160156 L 240.109375 286.339844 C 237.570312 284.628906 236.039062 281.78125 236.003906 278.722656 C 235.972656 275.664062 237.449219 272.785156 239.949219 271.023438 L 260.550781 256.515625 C 263.050781 254.753906 266.261719 254.335938 269.128906 255.394531 C 272 256.457031 274.164062 258.859375 274.917969 261.824219 L 286.3125 306.617188 C 286.839844 308.6875 286.03125 310.867188 284.285156 312.097656 C 282.539062 313.328125 280.214844 313.351562 278.441406 312.160156 Z M 278.441406 312.160156 " clip-rule="nonzero"/></clipPath><clipPath id="2196649864"><path d="M 0 0.121094 L 50.878906 0.121094 L 50.878906 59.398438 L 0 59.398438 Z M 0 0.121094 " clip-rule="nonzero"/></clipPath><clipPath id="03ad8a9624"><path d="M 66.359375 45.519531 L 30.351562 70.878906 L -3.8125 22.367188 L 32.195312 -2.992188 Z M 66.359375 45.519531 " clip-rule="nonzero"/></clipPath><clipPath id="6f805bd302"><path d="M 42.441406 58.160156 L 4.109375 32.339844 C 1.570312 30.628906 0.0390625 27.78125 0.00390625 24.722656 C -0.0273438 21.664062 1.449219 18.785156 3.949219 17.023438 L 24.550781 2.515625 C 27.050781 0.753906 30.261719 0.335938 33.128906 1.394531 C 36 2.457031 38.164062 4.859375 38.917969 7.824219 L 50.3125 52.617188 C 50.839844 54.6875 50.03125 56.867188 48.285156 58.097656 C 46.539062 59.328125 44.214844 59.351562 42.441406 58.160156 Z M 42.441406 58.160156 " clip-rule="nonzero"/></clipPath><clipPath id="0feae06b13"><rect x="0" width="51" y="0" height="60"/></clipPath><clipPath id="ac9c5bd8f6"><rect x="0" width="312" y="0" height="335"/></clipPath></defs><g fill="#000000" fill-opacity="1"><g transform="translate(314.608748, 874.489057)"><g><path d="M 149.234375 -119.390625 C 149.234375 -130.441406 145.363281 -139.835938 137.625 -147.578125 C 129.882812 -155.316406 120.488281 -159.1875 109.4375 -159.1875 C 98.382812 -159.1875 88.988281 -155.316406 81.25 -147.578125 C 73.507812 -139.835938 69.640625 -130.441406 69.640625 -119.390625 L 69.640625 -26.53125 C 69.640625 -19.34375 67.015625 -13.125 61.765625 -7.875 C 56.515625 -2.625 50.296875 0 43.109375 0 C 35.921875 0 29.703125 -2.625 24.453125 -7.875 C 19.203125 -13.125 16.578125 -19.34375 16.578125 -26.53125 L 16.578125 -119.390625 C 16.578125 -134.316406 19.753906 -148.132812 26.109375 -160.84375 C 22.242188 -163.601562 19.132812 -167.125 16.78125 -171.40625 C 14.4375 -175.695312 13.265625 -180.46875 13.265625 -185.71875 C 13.265625 -194.007812 16.164062 -201.054688 21.96875 -206.859375 C 27.769531 -212.660156 34.816406 -215.5625 43.109375 -215.5625 C 48.359375 -215.5625 53.125 -214.316406 57.40625 -211.828125 C 61.695312 -209.347656 65.222656 -206.171875 67.984375 -202.296875 C 74.335938 -205.335938 80.96875 -207.753906 87.875 -209.546875 C 94.789062 -211.347656 101.976562 -212.25 109.4375 -212.25 C 122.707031 -212.25 134.9375 -209.757812 146.125 -204.78125 C 157.320312 -199.8125 167.203125 -193.039062 175.765625 -184.46875 C 184.054688 -193.039062 193.867188 -199.8125 205.203125 -204.78125 C 216.535156 -209.757812 228.832031 -212.25 242.09375 -212.25 C 254.8125 -212.25 266.832031 -209.828125 278.15625 -204.984375 C 289.488281 -200.148438 299.367188 -193.519531 307.796875 -185.09375 C 316.222656 -176.664062 322.851562 -166.785156 327.6875 -155.453125 C 332.53125 -144.117188 334.953125 -132.097656 334.953125 -119.390625 L 334.953125 -26.53125 C 334.953125 -19.34375 332.328125 -13.125 327.078125 -7.875 C 321.828125 -2.625 315.609375 0 308.421875 0 C 301.234375 0 295.015625 -2.625 289.765625 -7.875 C 284.515625 -13.125 281.890625 -19.34375 281.890625 -26.53125 L 281.890625 -119.390625 C 281.890625 -130.441406 278.019531 -139.835938 270.28125 -147.578125 C 262.539062 -155.316406 253.144531 -159.1875 242.09375 -159.1875 C 231.039062 -159.1875 221.644531 -155.316406 213.90625 -147.578125 C 206.164062 -139.835938 202.296875 -130.441406 202.296875 -119.390625 L 202.296875 -26.53125 C 202.296875 -19.34375 199.671875 -13.125 194.421875 -7.875 C 189.171875 -2.625 182.953125 0 175.765625 0 C 168.578125 0 162.359375 -2.625 157.109375 -7.875 C 151.859375 -13.125 149.234375 -19.34375 149.234375 -26.53125 Z M 149.234375 -119.390625 "/></g></g></g><g fill="#000000" fill-opacity="1"><g transform="translate(648.318684, 874.489057)"><g><path d="M 6.625 -106.125 C 6.625 -120.769531 9.390625 -134.515625 14.921875 -147.359375 C 20.453125 -160.210938 28.050781 -171.476562 37.71875 -181.15625 C 47.394531 -190.832031 58.65625 -198.429688 71.5 -203.953125 C 84.351562 -209.484375 98.101562 -212.25 112.75 -212.25 C 127.40625 -212.25 141.15625 -209.484375 154 -203.953125 C 166.851562 -198.429688 178.113281 -190.832031 187.78125 -181.15625 C 197.457031 -171.476562 205.054688 -160.210938 210.578125 -147.359375 C 216.109375 -134.515625 218.875 -120.769531 218.875 -106.125 C 218.875 -96.445312 217.628906 -87.253906 215.140625 -78.546875 C 212.660156 -69.847656 209.207031 -61.488281 204.78125 -53.46875 C 210.03125 -51.257812 214.242188 -47.738281 217.421875 -42.90625 C 220.609375 -38.070312 222.203125 -32.613281 222.203125 -26.53125 C 222.203125 -18.238281 219.296875 -11.191406 213.484375 -5.390625 C 207.679688 0.410156 200.632812 3.3125 192.34375 3.3125 C 186.269531 3.3125 180.8125 1.722656 175.96875 -1.453125 C 171.132812 -4.628906 167.472656 -8.84375 164.984375 -14.09375 C 149.234375 -4.695312 131.820312 0 112.75 0 C 98.101562 0 84.351562 -2.757812 71.5 -8.28125 C 58.65625 -13.8125 47.394531 -21.410156 37.71875 -31.078125 C 28.050781 -40.753906 20.453125 -52.019531 14.921875 -64.875 C 9.390625 -77.726562 6.625 -91.476562 6.625 -106.125 Z M 59.6875 -106.125 C 59.6875 -98.664062 61.066406 -91.753906 63.828125 -85.390625 C 66.597656 -79.035156 70.398438 -73.441406 75.234375 -68.609375 C 80.078125 -63.773438 85.675781 -59.972656 92.03125 -57.203125 C 98.382812 -54.441406 105.289062 -53.0625 112.75 -53.0625 C 120.21875 -53.0625 127.128906 -54.441406 133.484375 -57.203125 C 139.835938 -59.972656 145.429688 -63.773438 150.265625 -68.609375 C 155.109375 -73.441406 158.910156 -79.035156 161.671875 -85.390625 C 164.429688 -91.753906 165.8125 -98.664062 165.8125 -106.125 C 165.8125 -113.582031 164.429688 -120.488281 161.671875 -126.84375 C 158.910156 -133.207031 155.109375 -138.804688 150.265625 -143.640625 C 145.429688 -148.472656 139.835938 -152.269531 133.484375 -155.03125 C 127.128906 -157.800781 120.21875 -159.1875 112.75 -159.1875 C 105.289062 -159.1875 98.382812 -157.800781 92.03125 -155.03125 C 85.675781 -152.269531 80.078125 -148.472656 75.234375 -143.640625 C 70.398438 -138.804688 66.597656 -133.207031 63.828125 -126.84375 C 61.066406 -120.488281 59.6875 -113.582031 59.6875 -106.125 Z M 59.6875 -106.125 "/></g></g></g><g fill="#000000" fill-opacity="1"><g transform="translate(869.271875, 874.489057)"><g><path d="M 13.265625 -185.71875 C 13.265625 -194.007812 16.164062 -201.054688 21.96875 -206.859375 C 27.769531 -212.660156 34.816406 -215.5625 43.109375 -215.5625 C 49.191406 -215.5625 54.648438 -213.972656 59.484375 -210.796875 C 64.316406 -207.617188 67.84375 -203.40625 70.0625 -198.15625 C 78.070312 -202.570312 86.429688 -206.023438 95.140625 -208.515625 C 103.847656 -211.003906 113.035156 -212.25 122.703125 -212.25 C 137.347656 -212.25 151.097656 -209.484375 163.953125 -203.953125 C 176.804688 -198.429688 188.066406 -190.832031 197.734375 -181.15625 C 207.410156 -171.476562 215.007812 -160.210938 220.53125 -147.359375 C 226.0625 -134.515625 228.828125 -120.769531 228.828125 -106.125 L 228.828125 -26.53125 C 228.828125 -19.34375 226.203125 -13.125 220.953125 -7.875 C 215.703125 -2.625 209.484375 0 202.296875 0 C 195.109375 0 188.890625 -2.625 183.640625 -7.875 C 178.390625 -13.125 175.765625 -19.34375 175.765625 -26.53125 L 175.765625 -106.125 C 175.765625 -113.582031 174.382812 -120.488281 171.625 -126.84375 C 168.863281 -133.207031 165.0625 -138.804688 160.21875 -143.640625 C 155.382812 -148.472656 149.789062 -152.269531 143.4375 -155.03125 C 137.082031 -157.800781 130.171875 -159.1875 122.703125 -159.1875 C 115.242188 -159.1875 108.332031 -157.800781 101.96875 -155.03125 C 95.613281 -152.269531 90.019531 -148.472656 85.1875 -143.640625 C 80.351562 -138.804688 76.550781 -133.207031 73.78125 -126.84375 C 71.019531 -120.488281 69.640625 -113.582031 69.640625 -106.125 L 69.640625 -26.53125 C 69.640625 -19.34375 67.015625 -13.125 61.765625 -7.875 C 56.515625 -2.625 50.296875 0 43.109375 0 C 35.921875 0 29.703125 -2.625 24.453125 -7.875 C 19.203125 -13.125 16.578125 -19.34375 16.578125 -26.53125 L 16.578125 -106.125 C 16.578125 -125.195312 21.273438 -142.609375 30.671875 -158.359375 C 25.421875 -160.847656 21.207031 -164.507812 18.03125 -169.34375 C 14.851562 -174.175781 13.265625 -179.632812 13.265625 -185.71875 Z M 13.265625 -185.71875 "/></g></g></g><g clip-path="url(#4d3872fabe)"><g clip-path="url(#923acc5826)"><g transform="matrix(1, 0, 0, 1, 81, 656)"><g clip-path="url(#480018147b)"><g clip-path="url(#507ba11918)"><g clip-path="url(#d621963636)"><path fill="#000000" d="M 0.0117188 0.664062 L 214.058594 0.664062 L 214.058594 214.710938 L 0.0117188 214.710938 Z M 0.0117188 0.664062 " fill-opacity="1" fill-rule="nonzero"/></g></g></g></g></g></g><g clip-path="url(#99fbe078f5)"><g clip-path="url(#6d99659e5d)"><g transform="matrix(1, 0, 0, 1, 149, 712)"><g clip-path="url(#ecfeab9a39)"><g clip-path="url(#e0a60ce56a)"><g clip-path="url(#e10830ac9a)"><path fill="#000000" d="M 0.296875 0.929688 L 94.445312 0.929688 L 94.445312 95.082031 L 0.296875 95.082031 Z M 0.296875 0.929688 " fill-opacity="1" fill-rule="nonzero"/></g></g></g></g></g></g><g clip-path="url(#96d0f3190b)"><g clip-path="url(#2dffa733ad)"><g transform="matrix(1, 0, 0, 1, 139, 708)"><g clip-path="url(#c4ebb9a529)"><g clip-path="url(#d9bcab2dd3)"><g clip-path="url(#f9b6299bb7)"><path fill="#000000" d="M 0.375 0.628906 L 104.445312 0.628906 L 104.445312 104.703125 L 0.375 104.703125 Z M 0.375 0.628906 " fill-opacity="1" fill-rule="nonzero"/></g></g></g></g></g></g><g clip-path="url(#531ed5f9cb)"><path fill="#000000" d="M 242.625 656.621094 L 242.625 804.367188 C 242.625 844.835938 275.53125 877.644531 316.125 877.644531 L 316.125 729.898438 C 316.125 689.429688 283.214844 656.621094 242.625 656.621094 Z M 242.625 656.621094 " fill-opacity="1" fill-rule="nonzero"/></g><g clip-path="url(#a21a1a36cb)"><path fill="#ffde59" d="M 121.285156 730.558594 C 124.90625 730.558594 127.863281 733.519531 127.863281 737.140625 L 127.863281 763.683594 L 114.707031 763.683594 L 114.707031 737.140625 C 114.707031 733.519531 117.667969 730.558594 121.285156 730.558594 Z M 121.285156 730.558594 " fill-opacity="1" fill-rule="evenodd"/></g><g clip-path="url(#755741389d)"><path stroke-linecap="butt" transform="matrix(0.0157899, 0, 0, 0.0157899, 114.706591, 684.734753)" fill="none" stroke-linejoin="miter" d="M 416.631419 2902.099487 C 645.961265 2902.099487 833.234936 3089.620548 833.234936 3318.950393 L 833.234936 4999.960426 L 0.0279027 4999.960426 L 0.0279027 3318.950393 C 0.0279027 3089.620548 187.548963 2902.099487 416.631419 2902.099487 Z M 416.631419 2902.099487 " stroke="#000000" stroke-width="6.94" stroke-opacity="1" stroke-miterlimit="2.613"/></g><path stroke-linecap="butt" transform="matrix(0.0157899, 0, 0, 0.0157899, 114.706591, 684.734753)" fill-opacity="1" fill="#ffde59" fill-rule="evenodd" stroke-linejoin="miter" d="M 2083.292875 1223.810737 C 2312.62272 1223.810737 2499.896391 1411.331797 2499.896391 1640.661642 L 2499.896391 4999.960426 L 1666.689358 4999.960426 L 1666.689358 1640.661642 C 1666.689358 1411.331797 1854.210419 1223.810737 2083.292875 1223.810737 Z M 2083.292875 1223.810737 " stroke="#000000" stroke-width="6.94" stroke-opacity="1" stroke-miterlimit="2.613"/><path stroke-linecap="butt" transform="matrix(0.0157899, 0, 0, 0.0157899, 114.706591, 684.734753)" fill-opacity="1" fill="#ffde59" fill-rule="evenodd" stroke-linejoin="miter" d="M 3749.95433 3137.366675 C 3979.284176 3137.366675 4166.557847 3324.887735 4166.557847 3553.970192 L 4166.557847 4999.960426 L 3333.350814 4999.960426 L 3333.350814 3553.970192 C 3333.350814 3324.887735 3520.871874 3137.366675 3749.95433 3137.366675 Z M 3749.95433 3137.366675 " stroke="#000000" stroke-width="6.94" stroke-opacity="1" stroke-miterlimit="2.613"/><path stroke-linecap="butt" transform="matrix(0.0157899, 0, 0, 0.0157899, 114.706591, 684.734753)" fill-opacity="1" fill="#ffde59" fill-rule="evenodd" stroke-linejoin="miter" d="M 5416.615786 1953.11428 C 5645.945631 1953.11428 5833.219302 2140.63534 5833.219302 2369.717796 L 5833.219302 4999.960426 L 5000.012269 4999.960426 L 5000.012269 2369.717796 C 5000.012269 2140.63534 5187.53333 1953.11428 5416.615786 1953.11428 Z M 5416.615786 1953.11428 " stroke="#000000" stroke-width="6.94" stroke-opacity="1" stroke-miterlimit="2.613"/><g clip-path="url(#6052979a65)"><path fill="#ffde59" d="M 226.550781 696.109375 C 230.171875 696.109375 233.128906 699.070312 233.128906 702.691406 L 233.128906 763.683594 L 219.972656 763.683594 L 219.972656 702.691406 C 219.972656 699.070312 222.933594 696.109375 226.550781 696.109375 Z M 226.550781 696.109375 " fill-opacity="1" fill-rule="evenodd"/></g><g clip-path="url(#90ccb50ae1)"><path stroke-linecap="butt" transform="matrix(0.0157899, 0, 0, 0.0157899, 114.706591, 684.734753)" fill="none" stroke-linejoin="miter" d="M 7083.277241 720.373589 C 7312.607087 720.373589 7499.880758 907.894649 7499.880758 1137.224495 L 7499.880758 4999.960426 L 6666.673725 4999.960426 L 6666.673725 1137.224495 C 6666.673725 907.894649 6854.194785 720.373589 7083.277241 720.373589 Z M 7083.277241 720.373589 " stroke="#000000" stroke-width="6.94" stroke-opacity="1" stroke-miterlimit="2.613"/></g><path stroke-linecap="butt" transform="matrix(0.0157899, 0, 0, 0.0157899, 114.706591, 684.734753)" fill-opacity="1" fill="#ffde59" fill-rule="evenodd" stroke-linejoin="miter" d="M 8749.938697 3987.148789 C 8979.268542 3987.148789 9166.789603 4174.669849 9166.789603 4403.999695 L 9166.789603 4999.960426 L 8333.33518 4999.960426 L 8333.33518 4403.999695 C 8333.33518 4174.669849 8520.856241 3987.148789 8749.938697 3987.148789 Z M 8749.938697 3987.148789 " stroke="#000000" stroke-width="6.94" stroke-opacity="1" stroke-miterlimit="2.613"/><path stroke-linecap="butt" transform="matrix(0.0157899, 0, 0, 0.0157899, 114.706591, 684.734753)" fill-opacity="1" fill="#ffde59" fill-rule="evenodd" stroke-linejoin="miter" d="M 1250.085842 7097.821364 C 1479.168298 7097.821364 1666.689358 6910.300304 1666.689358 6681.217848 L 1666.689358 4999.960426 L 833.234936 4999.960426 L 833.234936 6681.217848 C 833.234936 6910.300304 1020.755996 7097.821364 1250.085842 7097.821364 Z M 1250.085842 7097.821364 " stroke="#000000" stroke-width="6.94" stroke-opacity="1" stroke-miterlimit="2.613"/><path stroke-linecap="butt" transform="matrix(0.0157899, 0, 0, 0.0157899, 114.706591, 684.734753)" fill-opacity="1" fill="#ffde59" fill-rule="evenodd" stroke-linejoin="miter" d="M 2916.747297 8776.110115 C 3145.829753 8776.110115 3333.350814 8588.589055 3333.350814 8359.506599 L 3333.350814 4999.960426 L 2499.896391 4999.960426 L 2499.896391 8359.506599 C 2499.896391 8588.589055 2687.417452 8776.110115 2916.747297 8776.110115 Z M 2916.747297 8776.110115 " stroke="#000000" stroke-width="6.94" stroke-opacity="1" stroke-miterlimit="2.613"/><path stroke-linecap="butt" transform="matrix(0.0157899, 0, 0, 0.0157899, 114.706591, 684.734753)" fill-opacity="1" fill="#ffde59" fill-rule="evenodd" stroke-linejoin="miter" d="M 4583.408753 6862.801566 C 4812.491209 6862.801566 5000.012269 6675.280506 5000.012269 6445.95066 L 5000.012269 4999.960426 L 4166.557847 4999.960426 L 4166.557847 6445.95066 C 4166.557847 6675.280506 4354.078907 6862.801566 4583.408753 6862.801566 Z M 4583.408753 6862.801566 " stroke="#000000" stroke-width="6.94" stroke-opacity="1" stroke-miterlimit="2.613"/><path stroke-linecap="butt" transform="matrix(0.0157899, 0, 0, 0.0157899, 114.706591, 684.734753)" fill-opacity="1" fill="#ffde59" fill-rule="evenodd" stroke-linejoin="miter" d="M 6250.070208 8046.806572 C 6479.152664 8046.806572 6666.673725 7859.532901 6666.673725 7630.203055 L 6666.673725 4999.960426 L 5833.219302 4999.960426 L 5833.219302 7630.203055 C 5833.219302 7859.532901 6020.740363 8046.806572 6250.070208 8046.806572 Z M 6250.070208 8046.806572 " stroke="#000000" stroke-width="6.94" stroke-opacity="1" stroke-miterlimit="2.613"/><g clip-path="url(#45efbd0e4e)"><path fill="#ffde59" d="M 239.710938 831.257812 C 243.328125 831.257812 246.289062 828.296875 246.289062 824.679688 L 246.289062 763.683594 L 233.132812 763.683594 L 233.132812 824.679688 C 233.132812 828.296875 236.089844 831.257812 239.710938 831.257812 Z M 239.710938 831.257812 " fill-opacity="1" fill-rule="evenodd"/></g><g clip-path="url(#b10bbbcf76)"><path stroke-linecap="butt" transform="matrix(0.0157899, 0, 0, 0.0157899, 114.706591, 684.734753)" fill="none" stroke-linejoin="miter" d="M 7916.731664 9279.547263 C 8145.81412 9279.547263 8333.33518 9092.026202 8333.33518 8862.943746 L 8333.33518 4999.960426 L 7500.128147 4999.960426 L 7500.128147 8862.943746 C 7500.128147 9092.026202 7687.401818 9279.547263 7916.731664 9279.547263 Z M 7916.731664 9279.547263 " stroke="#000000" stroke-width="6.94" stroke-opacity="1" stroke-miterlimit="2.613"/></g><g clip-path="url(#6efc296d47)"><path fill="#ffde59" d="M 266.027344 779.675781 C 269.644531 779.675781 272.605469 776.714844 272.605469 773.097656 L 272.605469 763.683594 L 259.449219 763.683594 L 259.449219 773.097656 C 259.449219 776.714844 262.40625 779.675781 266.027344 779.675781 Z M 266.027344 779.675781 " fill-opacity="1" fill-rule="evenodd"/></g><g clip-path="url(#da54a64092)"><path stroke-linecap="butt" transform="matrix(0.0157899, 0, 0, 0.0157899, 114.706591, 684.734753)" fill="none" stroke-linejoin="miter" d="M 9583.393119 6012.772063 C 9812.475576 6012.772063 9999.996636 5825.251003 9999.996636 5596.168546 L 9999.996636 4999.960426 L 9166.789603 4999.960426 L 9166.789603 5596.168546 C 9166.789603 5825.251003 9354.063274 6012.772063 9583.393119 6012.772063 Z M 9583.393119 6012.772063 " stroke="#000000" stroke-width="6.94" stroke-opacity="1" stroke-miterlimit="2.613"/></g><g transform="matrix(1, 0, 0, 1, 1108, 589)"><g clip-path="url(#ac9c5bd8f6)"><g clip-path="url(#fded75a604)"><path fill="#ffde59" d="M 272.550781 255.011719 L 210.910156 148.269531 L 183.730469 195.394531 L 231.726562 278.546875 C 236.0625 286.0625 243.984375 290.34375 252.136719 290.34375 C 256.128906 290.34375 260.175781 289.300781 263.875 287.164062 C 275.210938 280.628906 279.027344 266.289062 272.550781 255.011719 Z M 272.550781 255.011719 " fill-opacity="1" fill-rule="nonzero"/></g><g clip-path="url(#34419bdad1)"><path fill="#ffde59" d="M 229.296875 89.632812 L 203.160156 134.910156 L 175.925781 182.039062 L 133.828125 254.953125 C 121.222656 276.8125 97.6875 290.402344 72.476562 290.402344 C 46.859375 290.402344 23.902344 277.160156 11.066406 254.953125 C -1.769531 232.808594 -1.769531 206.265625 11.066406 184.0625 L 84.734375 56.558594 C 92.367188 43.316406 106.074219 35.394531 121.339844 35.394531 C 136.605469 35.394531 150.308594 43.316406 158 56.558594 L 160.660156 61.183594 L 168.292969 74.367188 L 141.058594 121.496094 L 121.339844 87.378906 L 51.949219 207.597656 C 45.761719 218.292969 49.867188 227.777344 51.949219 231.363281 C 54.03125 234.945312 60.160156 243.273438 72.535156 243.273438 C 80.976562 243.273438 88.898438 238.707031 93.0625 231.363281 L 148.746094 134.910156 L 175.984375 87.785156 L 188.472656 66.097656 C 195.007812 54.824219 209.40625 50.949219 220.683594 57.484375 C 231.957031 63.960938 235.832031 78.359375 229.296875 89.632812 Z M 229.296875 89.632812 " fill-opacity="1" fill-rule="nonzero"/></g><path fill="#ffde59" d="M 217.847656 33.660156 C 230.453125 62.050781 272.492188 44.644531 261.390625 15.617188 C 248.726562 -12.714844 206.6875 4.6875 217.847656 33.660156 Z M 217.847656 33.660156 " fill-opacity="1" fill-rule="nonzero"/><g clip-path="url(#860bc5e7de)"><g clip-path="url(#4f952a3933)"><g clip-path="url(#35ac481362)"><g transform="matrix(1, 0, 0, 1, 236, 254)"><g clip-path="url(#0feae06b13)"><g clip-path="url(#2196649864)"><g clip-path="url(#03ad8a9624)"><g clip-path="url(#6f805bd302)"><path fill="#ffbd59" d="M 74.976562 50.671875 L 32.300781 80.726562 L -7.148438 24.714844 L 35.53125 -5.339844 Z M 74.976562 50.671875 " fill-opacity="1" fill-rule="nonzero"/></g></g></g></g></g></g></g></g></g></g></svg>